<?xml version="1.0" encoding="utf-8"?>
<!-- Generator: Adobe Illustrator 24.2.3, SVG Export Plug-In . SVG Version: 6.00 Build 0)  -->
<svg version="1.1" id="Layer_1" xmlns="http://www.w3.org/2000/svg" xmlns:xlink="http://www.w3.org/1999/xlink" x="0px" y="0px"
	 viewBox="0 0 99.2 99.2" style="enable-background:new 0 0 99.2 99.2;" xml:space="preserve">
<style type="text/css">
	.st0{fill:#FFFFFF;}
</style>
<path class="st0" d="M59.8,36.2c5.8,0,10.7-3.5,12.8-8.5c0.3-0.8,1.4-1.1,2.1-0.6l4.1,3.2c0.9,0.7,2.2,0.1,2.2-1.1V17.4
	c0-1.1-1.3-1.7-2.2-1.1l-3.6,2.8c-0.7,0.6-1.8,0.2-2.1-0.7c-1.7-5.8-7-10-13.3-10c-12.5,0-23.5,4.7-31.2,13.3
	c-6.7,7.6-10.4,17.6-10.4,28.3c0,20.7,14.3,41.6,41.6,41.6c6.6,0,12.1-4.6,13.5-10.8c0.2-1,1.4-1.4,2.1-0.8l3.3,2.6
	c0.9,0.7,2.2,0.1,2.2-1.1V69.8c0-1.1-1.3-1.7-2.2-1.1l-4.5,3.5c-0.7,0.5-1.7,0.3-2-0.5c-2.2-4.6-7-7.8-12.5-7.8
	C46.7,63.9,46,52.4,46,50.1c0-3.8,1.3-7.4,3.4-9.8C51.8,37.6,55.3,36.2,59.8,36.2z"/>
</svg>
